<svg xmlns="http://www.w3.org/2000/svg" xmlns:xlink="http://www.w3.org/1999/xlink" viewBox="0 0 351.8 351.6"><defs><style>.cls-1,.cls-3{fill:none;}.cls-2{clip-path:url(#clip-path);}.cls-3{stroke:#fff;stroke-width:0.4px;}.cls-4{fill:#231f20;}</style><clipPath id="clip-path" transform="translate(0)"><rect class="cls-1" width="351.8" height="351.6"/></clipPath></defs><title>Asset 1</title><g id="Layer_2" data-name="Layer 2"><g id="Layer_1-2" data-name="Layer 1"><g class="cls-2"><path class="cls-3" d="M52.94,153.93l.56-3-3.58-.66-.56,3Zm-38.76-3.69.46-2.47L8,146.53c-2.27-.42-2.95-1.33-2.65-3s1.17-2.49,3.51-2.06L17.08,143c5.28,1.12,9.66,5.92,14.82,6.87l9.64,1.79L42,149.2l-8-1.48a18.64,18.64,0,0,1-6.56-2.64L24,143.16a24.86,24.86,0,0,0-7.31-2.78L10,139.15c-4.61-.85-6.13.44-6.83,4.22-.63,3.37,1.27,5.08,4.09,5.6Zm37,18.28.12-3.57L.93,159.58.85,162l30.85,3.29c5.8.61,11.67.86,17.47,1.4v.14c-5.82,0-11.71.33-17.53.63l-31,1.68L.5,173.08l30.84,3.71c5.79.67,11.67.79,17.46,1.6v.14c-5.81,0-11.7.19-17.52.36l-31,1.05-.08,2.51,50.62-2,.12-3.71L19.14,173c-5.52-.67-11-.91-16.48-1.64v-.14c5.47,0,10.94-.43,16.42-.74Zm-4.59,22.09c2.22-.3,3.56.79,3.83,2.8a3.11,3.11,0,0,1-3,3.79L7.81,202.5A3.11,3.11,0,0,1,4,199.62c-.27-2,.74-3.42,3-3.71ZM6.49,193.14C3,193.6,1.37,196,1.88,199.9s2.76,5.85,6.23,5.38L47.94,200c3.47-.46,5.11-2.94,4.59-6.82s-2.74-5.78-6.21-5.32Zm51.45,24.19-.78-2.68-32.4,9.41c-1.61.47-7.69,2.61-14,4.58l0-.14c6.17-2.59,12.54-5.25,15-6.41l29.56-13.7-1.18-4L5.64,218.47l.78,2.69,30.92-9c2.63-.76,8.78-2.92,15.4-5.21l0,.14c-5.59,2.57-10.87,5-14.54,6.63l-30,13.68,1.17,4ZM54.83,244,56,246.19l7.9-4.23c3-1.62,4-4,2-7.79s-4.57-4.38-7.41-2.86l-8.4,4.49a16.94,16.94,0,0,0-5.73,5.46l-7,10.24a11,11,0,0,1-3.73,3.27l-6.91,3.7a2.83,2.83,0,0,1-4.08-1.23c-.92-1.73-.68-3.05,1.11-4l7.72-4.13-1.19-2.22-8,4.26c-2.9,1.55-3.21,3.94-1.43,7.28,1.69,3.14,4.47,4.19,7.37,2.64l6.48-3.47a15.67,15.67,0,0,0,5.19-4.84l7-10.44a14.65,14.65,0,0,1,5-4.37l7.66-4.1c2-1.09,3.33-.59,4.45,1.51,1.23,2.28.29,3.5-1.19,4.29Zm17.56,1.62-1.53-2.35L28.48,270.77,30,273.12Zm17.49,20.9-1.92-2L63.4,287.59C62.18,288.74,57.73,293.41,53,298l-.1-.1c4.32-5.13,8.78-10.39,10.48-12.57L83.5,259.72l-2.88-3.06L43.83,291.32l1.92,2,23.44-22.08c2-1.87,6.48-6.59,11.34-11.64l.1.1c-3.81,4.84-7.41,9.39-9.94,12.53L50.22,298.09l2.88,3.06Zm2.82,9.3c1.39-1.75,3.12-1.9,4.71-.64a3.11,3.11,0,0,1,.49,4.78L73,311.26a3.1,3.1,0,0,1-4.76.59c-1.59-1.26-1.84-3-.44-4.73ZM65.53,305.43c-2.17,2.74-1.7,5.63,1.37,8.07s6,2.3,8.22-.44l25-31.44c2.18-2.74,1.64-5.67-1.43-8.11s-6-2.26-8.16.48Zm41.9-19c1.13-1.93,2.82-2.33,4.57-1.3a3.1,3.1,0,0,1,1.18,4.65L93,324.37a3.11,3.11,0,0,1-4.63,1.27c-1.75-1-2.24-2.68-1.11-4.62ZM84.81,319.67c-1.76,3-.87,5.81,2.51,7.79s6.31,1.4,8.07-1.62l20.24-34.71c1.77-3,.82-5.84-2.57-7.82s-6.25-1.37-8,1.65Zm40.34-14.51,2.31,1,3.54-8.23c1.36-3.15.65-5.59-3.33-7.31s-6.31-.58-7.58,2.38l-3.76,8.75a16.81,16.81,0,0,0-1.09,7.84l.93,12.36a10.87,10.87,0,0,1-.88,4.88l-3.1,7.2a2.83,2.83,0,0,1-4,1.58c-1.8-.78-2.43-2-1.63-3.83l3.46-8-2.32-1L104.18,331c-1.3,3-.05,5.09,3.42,6.58,3.28,1.41,6.11.49,7.41-2.53l2.91-6.75a15.74,15.74,0,0,0,1-7l-1-12.55a14.53,14.53,0,0,1,1.22-6.56l3.43-8c.91-2.12,2.23-2.55,4.42-1.6,2.38,1,2.41,2.55,1.74,4.1ZM150.23,298l-3.52-.6-12.3,49.16,2.42.42,7.52-30.1c1.4-5.66,2.47-11.44,3.8-17.11l.14,0c-.78,5.76-1.29,11.64-1.8,17.45l-2.63,30.94,3.87.66,7.94-30c1.47-5.65,2.39-11.45,4-17.07l.14,0c-.85,5.75-1.43,11.62-2.07,17.4L154.49,350l2.48.43L162,300.05l-3.66-.63-8.17,31c-1.42,5.36-2.43,10.8-3.91,16.09l-.14,0c.79-5.4,1.1-10.89,1.54-16.35Zm21.22,7.79c0-2.24,1.28-3.42,3.31-3.41a3.11,3.11,0,0,1,3.34,3.45l-.25,40a3.11,3.11,0,0,1-3.38,3.41c-2,0-3.29-1.21-3.27-3.45Zm-3,40.09c0,3.5,2.13,5.48,6,5.5s6.17-1.92,6.2-5.42l.25-40.18c0-3.5-2.2-5.47-6.12-5.5s-6.11,1.92-6.13,5.42Zm29.86-47.17-2.77.37,3.3,24.7-6.59.88L188.9,300l-2.78.37,6.69,50.09,2.78-.37-3.12-23.31,6.6-.88,3.11,23.31,2.77-.37Zm19.51-5.32-2.91,1,1.19,3.44,2.91-1Zm15.9,35.53-2.38.83,2.22,6.41c.75,2.19.3,3.23-1.29,3.78s-2.74.21-3.52-2L226,330c-1.63-5.14.39-11.32-1.33-16.28l-3.2-9.26-2.38.82,2.65,7.67a18.64,18.64,0,0,1,.94,7l0,4a25.37,25.37,0,0,0,1.19,7.73l2.2,6.35c1.53,4.44,3.39,5.12,7,3.87,3.25-1.12,3.79-3.61,2.86-6.32Zm-2.34-41.22-3.15,1.69,20.52,46.34,2.16-1.16-12.57-28.37c-2.37-5.32-5.08-10.53-7.52-15.82l.13-.07c2.93,5,6.13,10,9.31,14.87l17,26,3.45-1.85-12.2-28.56c-2.31-5.36-5.14-10.51-7.33-15.93l.12-.06c2.87,5.05,6,10,9.07,15l16.39,26.32,2.22-1.19-27-42.87-3.27,1.75,12.6,29.47c2.17,5.1,4.72,10,6.81,15.09l-.13.06c-2.7-4.74-5.83-9.26-8.84-13.84Zm21.5-7c-1.37-1.77-1.11-3.49.5-4.73a3.11,3.11,0,0,1,4.75.65l24.56,31.63a3.11,3.11,0,0,1-.56,4.77c-1.6,1.24-3.32,1.08-4.7-.69Zm22.38,33.4c2.15,2.76,5.07,3,8.16.58s3.67-5.33,1.52-8.09L260.25,274.9c-2.14-2.77-5.11-2.94-8.21-.54s-3.61,5.28-1.46,8.05Zm-4.84-56.48-1.94,2,24.28,23.43c1.21,1.16,6.09,5.38,10.92,9.85l-.1.1c-5.32-4.06-10.79-8.27-13-9.86l-26.57-18.83-2.92,3,36.37,35.09,1.95-2-23.18-22.36c-2-1.9-6.89-6.17-12.17-10.78l.1-.1c5,3.58,9.73,7,13,9.33l26.78,19.22,2.91-3Zm24.72-10.41,1.35-2.13-7.57-4.79c-2.9-1.83-5.42-1.52-7.74,2.15s-1.56,6.13,1.16,7.85l8,5.09a16.87,16.87,0,0,0,7.58,2.31l12.35,1a11.08,11.08,0,0,1,4.68,1.64l6.63,4.19a2.82,2.82,0,0,1,.93,4.15c-1.05,1.66-2.32,2.1-4,1l-7.4-4.68-1.34,2.13,7.63,4.83c2.78,1.76,5,.85,7-2.34,1.91-3,1.45-6-1.33-7.72L316.85,258a15.67,15.67,0,0,0-6.77-2.13l-12.55-1a14.64,14.64,0,0,1-6.29-2.24l-7.34-4.64c-1.95-1.23-2.15-2.61-.88-4.62,1.38-2.19,2.9-2,4.32-1.07Zm-7.24-16.07-1.29,2.48L331.4,257l1.29-2.49Zm9.52-25.54-.81,2.68,32.28,9.82c1.6.48,7.87,2,14.2,3.81l0,.13c-6.58-1.2-13.37-2.46-16.1-2.85l-32.24-4.69-1.22,4,48.35,14.71.82-2.68-30.81-9.37c-2.61-.79-8.94-2.35-15.74-4.06l0-.13c6.09.9,11.83,1.77,15.81,2.39l32.59,4.95,1.23-4Zm6.68-7c-2.21-.35-3.18-1.78-2.87-3.79a3.12,3.12,0,0,1,3.92-2.78l39.54,6.3a3.11,3.11,0,0,1,2.86,3.86c-.32,2-1.69,3.06-3.9,2.71Zm39.18,9.07c3.45.55,5.73-1.28,6.35-5.15s-1-6.39-4.43-6.95l-39.68-6.31c-3.45-.55-5.74,1.35-6.36,5.22s1,6.32,4.44,6.87ZM306,180.57c-2.24,0-3.41-1.32-3.37-3.35a3.1,3.1,0,0,1,3.49-3.29l40,.76a3.11,3.11,0,0,1,3.37,3.42c0,2-1.25,3.27-3.49,3.23Zm40,3.57c3.49.06,5.5-2.07,5.57-6s-1.84-6.2-5.34-6.26l-40.17-.76c-3.5-.07-5.51,2.13-5.58,6.05s1.84,6.13,5.34,6.19Zm-32.55-28.39-.31-2.5-8.89,1.07c-3.41.41-5.16,2.25-4.64,6.55s2.67,5.75,5.86,5.36l9.46-1.14a16.87,16.87,0,0,0,7.32-3l10.22-7a11.12,11.12,0,0,1,4.66-1.69l7.79-.94a2.83,2.83,0,0,1,3.34,2.63c.24,2-.47,3.09-2.48,3.33l-8.69,1,.3,2.5,9-1.08c3.26-.39,4.42-2.51,4-6.26-.42-3.54-2.64-5.53-5.9-5.14l-7.3.88a15.75,15.75,0,0,0-6.59,2.63l-10.35,7.17a14.52,14.52,0,0,1-6.29,2.24l-8.61,1c-2.3.28-3.33-.65-3.61-3-.31-2.57,1-3.36,2.67-3.56ZM295,137.59l1.21,3.36L345,127.43l-.83-2.31-29.9,8.29c-5.61,1.56-11.17,3.49-16.75,5.12l0-.13c5.4-2.16,10.76-4.61,16.07-7l28.22-13-1.33-3.69-30,7.89c-5.63,1.5-11.14,3.56-16.82,4.93l-.05-.13c5.42-2.1,10.81-4.48,16.16-6.77l28.43-12.37-.85-2.38L290.9,126.33l1.26,3.49,31-8.16c5.37-1.4,10.6-3.21,15.93-4.53l.05.14c-5.09,2-10,4.41-15,6.72Zm-3.7-22.26c-2,1.09-3.62.56-4.6-1.22a3.12,3.12,0,0,1,1.39-4.6L323.1,90.18a3.11,3.11,0,0,1,4.63,1.29c1,1.78.55,3.46-1.42,4.54Zm36.48-16.9c3.06-1.69,3.73-4.54,1.84-8s-4.69-4.45-7.76-2.76l-35.19,19.39c-3.06,1.69-3.7,4.6-1.8,8s4.65,4.39,7.72,2.7Zm-55.91-2.94,1.69,2.24,19.87-15,4,5.3-19.87,15,1.69,2.23,40.3-30.51-1.69-2.23-18.75,14.2-4-5.31L313.8,67.22,312.11,65Zm-14.3-14.3,2.32,2,2.4-2.74-2.32-2Zm23-31.42,1.9,1.66,4.47-5.11c1.52-1.74,2.66-1.86,3.92-.75s1.54,2.28,0,4.07L285.23,56c-3.66,4-10,5.28-13.48,9.22l-6.46,7.37,1.9,1.66,5.35-6.1a18.42,18.42,0,0,1,5.62-4.29l3.44-2a25.23,25.23,0,0,0,6.13-4.87l4.43-5c3.09-3.53,2.76-5.49-.13-8-2.58-2.26-5-1.51-6.9.65ZM245.9,72.2l3,1.91,30.22-40.69-2.07-1.31L258.56,57c-3.46,4.69-6.66,9.62-10.06,14.34l-.12-.07c2.93-5,5.66-10.26,8.35-15.43L271,28.29l-3.31-2.09L248.86,50.88c-3.52,4.65-6.6,9.66-10.24,14.23L238.5,65c3-5,5.78-10.18,8.59-15.28l14.82-27.23-2.13-1.35-24,44.62,3.14,2,19.43-25.47c3.37-4.42,6.38-9.05,9.78-13.37l.11.08c-2.8,4.69-5.18,9.64-7.69,14.52ZM229.22,56.92c-.86,2.07-2.48,2.68-4.35,1.9a3.1,3.1,0,0,1-1.79-4.45l15.37-37a3.11,3.11,0,0,1,4.42-1.87c1.88.78,2.59,2.36,1.73,4.43Zm18-36c1.34-3.23.09-5.88-3.53-7.38s-6.44-.56-7.78,2.67L220.47,53.36c-1.34,3.23,0,5.9,3.59,7.4s6.38.53,7.72-2.7ZM200.5,53l2.71.72,8.61-32.63c.43-1.62,1.73-7.94,3.28-14.33l.13,0c-.95,6.63-2,13.46-2.25,16.2L209.5,55.4l4.07,1.07L226.46,7.6l-2.7-.71L215.54,38c-.7,2.64-2,9-3.47,15.88l-.13,0c.67-6.12,1.32-11.89,1.8-15.89l3.72-32.75L213.4,4.16ZM179.18,36.78l-2.52-.11-.39,8.95c-.16,3.42,1.37,5.45,5.7,5.65s6.1-1.7,6.24-4.91l.43-9.51a16.92,16.92,0,0,0-1.76-7.72L181.63,17.9a11.06,11.06,0,0,1-.91-4.88l.35-7.83a2.82,2.82,0,0,1,3.14-2.87c2,.08,3,1,2.88,3l-.39,8.74,2.52.11.4-9c.15-3.29-1.75-4.77-5.52-4.94-3.57-.16-5.9,1.7-6,5l-.33,7.34a15.79,15.79,0,0,0,1.52,6.93l5.38,11.38a14.62,14.62,0,0,1,1.18,6.57l-.39,8.67c-.1,2.31-1.19,3.17-3.57,3.07-2.58-.12-3.15-1.54-3.08-3.22ZM168.83,51l2.8-.12L169.39.42l-2.8.12Zm-26.92,4.31,2.73-.61L137.26,21.8c-.37-1.63-2.12-7.84-3.69-14.23l.13,0c2.21,6.32,4.46,12.84,5.47,15.41L151,53.3l4.1-.92L144,3.07l-2.74.61,7,31.42c.6,2.66,2.36,8.94,4.24,15.69l-.14,0c-2.22-5.74-4.3-11.16-5.72-14.93L135,5.11l-4.1.91ZM132.44,53c.8,2.09.06,3.65-1.83,4.39a3.12,3.12,0,0,1-4.38-2L111.78,18a3.11,3.11,0,0,1,1.89-4.41c1.89-.73,3.5-.08,4.31,2ZM120.56,14.57c-1.26-3.27-4-4.31-7.65-2.9s-5,4.05-3.77,7.32l14.51,37.47c1.26,3.26,4.06,4.28,7.71,2.86s5-4,3.71-7.29Zm-4.74,45.66c1.09,2,.56,3.62-1.22,4.59a3.11,3.11,0,0,1-4.6-1.38L90.67,28.38A3.11,3.11,0,0,1,92,23.75c1.78-1,3.46-.55,4.54,1.42ZM98.92,23.75c-1.69-3.06-4.54-3.73-8-1.84s-4.45,4.69-2.76,7.76l19.39,35.19c1.69,3.06,4.6,3.7,8,1.8s4.39-4.65,2.7-7.72ZM90.59,66l-2,1.5,5.32,7.21c2,2.76,4.5,3.38,8,.8s3.68-5.15,1.76-7.74L98,60.1a16.92,16.92,0,0,0-6.22-4.89L80.62,49.78a11.13,11.13,0,0,1-3.77-3.22l-4.66-6.31A2.83,2.83,0,0,1,72.82,36c1.58-1.16,2.92-1.11,4.13.52l5.2,7,2-1.5-5.37-7.26c-2-2.65-4.36-2.61-7.4-.36-2.87,2.12-3.51,5-1.56,7.67l4.37,5.92a15.67,15.67,0,0,0,5.54,4.43L91.1,58a14.63,14.63,0,0,1,5.05,4.37l5.16,7c1.37,1.86,1.07,3.21-.85,4.63-2.08,1.53-3.42.78-4.42-.57ZM84,91.1l2.32-2.71L50.35,52.66l-1.59,1.86,22,21.87c4.14,4.1,8.56,8,12.74,12l-.09.1C78.87,84.89,74.09,81.44,69.35,78L44.12,59.94l-2.55,3L63.3,85.11c4.1,4.15,8.61,7.92,12.61,12.18l-.09.1c-4.5-3.67-9.24-7.17-13.88-10.68L37.11,68.13l-1.64,1.92L76.19,100.2l2.41-2.82L56.17,74.49c-3.88-4-8-7.61-11.82-11.59l.09-.1c4.24,3.44,8.8,6.51,13.26,9.69ZM66.44,105.3c1.91,1.18,2.26,2.88,1.2,4.6A3.11,3.11,0,0,1,63,111L28.86,90a3.11,3.11,0,0,1-1.15-4.66c1.06-1.73,2.73-2.18,4.64-1ZM33.76,81.89c-3-1.84-5.79-1-7.84,2.32s-1.56,6.27,1.42,8.11l34.21,21.07c3,1.83,5.82,1,7.88-2.38S71,104.79,68,103Zm25,50.1,1.11-2.57L37,119.57l2.63-6.11,22.89,9.85,1.11-2.57-46.43-20-1.1,2.58,21.6,9.29-2.62,6.11-21.61-9.3L12.33,112Z" transform="translate(0)"/><path class="cls-4" d="M52.94,153.93l.56-3-3.58-.66-.56,3Zm-38.76-3.69.46-2.47L8,146.53c-2.27-.42-2.95-1.33-2.65-3s1.17-2.49,3.51-2.06L17.08,143c5.28,1.12,9.66,5.92,14.82,6.87l9.64,1.79L42,149.2l-8-1.48a18.64,18.64,0,0,1-6.56-2.64L24,143.16a24.86,24.86,0,0,0-7.31-2.78L10,139.15c-4.61-.85-6.13.44-6.83,4.22-.63,3.37,1.27,5.08,4.09,5.6Zm37,18.28.12-3.57L.93,159.58.85,162l30.85,3.29c5.8.61,11.67.86,17.47,1.4v.14c-5.82,0-11.71.33-17.53.63l-31,1.68L.5,173.08l30.84,3.71c5.79.67,11.67.79,17.46,1.6v.14c-5.81,0-11.7.19-17.52.36l-31,1.05-.08,2.51,50.62-2,.12-3.71L19.14,173c-5.52-.67-11-.91-16.48-1.64v-.14c5.47,0,10.94-.43,16.42-.74Zm-4.59,22.09c2.22-.3,3.56.79,3.83,2.8a3.11,3.11,0,0,1-3,3.79L7.81,202.5A3.11,3.11,0,0,1,4,199.62c-.27-2,.74-3.42,3-3.71ZM6.49,193.14C3,193.6,1.37,196,1.88,199.9s2.76,5.85,6.23,5.38L47.94,200c3.47-.46,5.11-2.94,4.59-6.82s-2.74-5.78-6.21-5.32Zm51.45,24.19-.78-2.68-32.4,9.41c-1.61.47-7.69,2.61-14,4.58l0-.14c6.17-2.59,12.54-5.25,15-6.41l29.56-13.7-1.18-4L5.64,218.47l.78,2.69,30.92-9c2.63-.76,8.78-2.92,15.4-5.21l0,.14c-5.59,2.57-10.87,5-14.54,6.63l-30,13.68,1.17,4ZM54.83,244,56,246.19l7.9-4.23c3-1.62,4-4,2-7.79s-4.57-4.38-7.41-2.86l-8.4,4.49a16.94,16.94,0,0,0-5.73,5.46l-7,10.24a11,11,0,0,1-3.73,3.27l-6.91,3.7a2.83,2.83,0,0,1-4.08-1.23c-.92-1.73-.68-3.05,1.11-4l7.72-4.13-1.19-2.22-8,4.26c-2.9,1.55-3.21,3.94-1.43,7.28,1.69,3.14,4.47,4.19,7.37,2.64l6.48-3.47a15.67,15.67,0,0,0,5.19-4.84l7-10.44a14.65,14.65,0,0,1,5-4.37l7.66-4.1c2-1.09,3.33-.59,4.45,1.51,1.23,2.28.29,3.5-1.19,4.29Zm17.56,1.62-1.53-2.35L28.48,270.77,30,273.12Zm17.49,20.9-1.92-2L63.4,287.59C62.18,288.74,57.73,293.41,53,298l-.1-.1c4.32-5.13,8.78-10.39,10.48-12.57L83.5,259.72l-2.88-3.06L43.83,291.32l1.92,2,23.44-22.08c2-1.87,6.48-6.59,11.34-11.64l.1.1c-3.81,4.84-7.41,9.39-9.94,12.53L50.22,298.09l2.88,3.06Zm2.82,9.3c1.39-1.75,3.12-1.9,4.71-.64a3.11,3.11,0,0,1,.49,4.78L73,311.26a3.1,3.1,0,0,1-4.76.59c-1.59-1.26-1.84-3-.44-4.73ZM65.53,305.43c-2.17,2.74-1.7,5.63,1.37,8.07s6,2.3,8.22-.44l25-31.44c2.18-2.74,1.64-5.67-1.43-8.11s-6-2.26-8.16.48Zm41.9-19c1.13-1.93,2.82-2.33,4.57-1.3a3.1,3.1,0,0,1,1.18,4.65L93,324.37a3.11,3.11,0,0,1-4.63,1.27c-1.75-1-2.24-2.68-1.11-4.62ZM84.81,319.67c-1.76,3-.87,5.81,2.51,7.79s6.31,1.4,8.07-1.62l20.24-34.71c1.77-3,.82-5.84-2.57-7.82s-6.25-1.37-8,1.65Zm40.34-14.51,2.31,1,3.54-8.23c1.36-3.15.65-5.59-3.33-7.31s-6.31-.58-7.58,2.38l-3.76,8.75a16.81,16.81,0,0,0-1.09,7.84l.93,12.36a10.87,10.87,0,0,1-.88,4.88l-3.1,7.2a2.83,2.83,0,0,1-4,1.58c-1.8-.78-2.43-2-1.63-3.83l3.46-8-2.32-1L104.18,331c-1.3,3-.05,5.09,3.42,6.58,3.28,1.41,6.11.49,7.41-2.53l2.91-6.75a15.74,15.74,0,0,0,1-7l-1-12.55a14.53,14.53,0,0,1,1.22-6.56l3.43-8c.91-2.12,2.23-2.55,4.42-1.6,2.38,1,2.41,2.55,1.74,4.1ZM150.23,298l-3.52-.6-12.3,49.16,2.42.42,7.52-30.1c1.4-5.66,2.47-11.44,3.8-17.11l.14,0c-.78,5.76-1.29,11.64-1.8,17.45l-2.63,30.94,3.87.66,7.94-30c1.47-5.65,2.39-11.45,4-17.07l.14,0c-.85,5.75-1.43,11.62-2.07,17.4L154.49,350l2.48.43L162,300.05l-3.66-.63-8.17,31c-1.42,5.36-2.43,10.8-3.91,16.09l-.14,0c.79-5.4,1.1-10.89,1.54-16.35Zm21.22,7.79c0-2.24,1.28-3.42,3.31-3.41a3.11,3.11,0,0,1,3.34,3.45l-.25,40a3.11,3.11,0,0,1-3.38,3.41c-2,0-3.29-1.21-3.27-3.45Zm-3,40.09c0,3.5,2.13,5.48,6,5.5s6.17-1.92,6.2-5.42l.25-40.18c0-3.5-2.2-5.47-6.12-5.5s-6.11,1.92-6.13,5.42Zm29.86-47.17-2.77.37,3.3,24.7-6.59.88L188.9,300l-2.78.37,6.69,50.09,2.78-.37-3.12-23.31,6.6-.88,3.11,23.31,2.77-.37Zm19.51-5.32-2.91,1,1.19,3.44,2.91-1Zm15.9,35.53-2.38.83,2.22,6.41c.75,2.19.3,3.23-1.29,3.78s-2.74.21-3.52-2L226,330c-1.63-5.14.39-11.32-1.33-16.28l-3.2-9.26-2.38.82,2.65,7.67a18.64,18.64,0,0,1,.94,7l0,4a25.37,25.37,0,0,0,1.19,7.73l2.2,6.35c1.53,4.44,3.39,5.12,7,3.87,3.25-1.12,3.79-3.61,2.86-6.32Zm-2.34-41.22-3.15,1.69,20.52,46.34,2.16-1.16-12.57-28.37c-2.37-5.32-5.08-10.53-7.52-15.82l.13-.07c2.93,5,6.13,10,9.31,14.87l17,26,3.45-1.85-12.2-28.56c-2.31-5.36-5.14-10.51-7.33-15.93l.12-.06c2.87,5.05,6,10,9.07,15l16.39,26.32,2.22-1.19-27-42.87-3.27,1.75,12.6,29.47c2.17,5.1,4.72,10,6.81,15.09l-.13.06c-2.7-4.74-5.83-9.26-8.84-13.84Zm21.5-7c-1.37-1.77-1.11-3.49.5-4.73a3.11,3.11,0,0,1,4.75.65l24.56,31.63a3.11,3.11,0,0,1-.56,4.77c-1.6,1.24-3.32,1.08-4.7-.69Zm22.38,33.4c2.15,2.76,5.07,3,8.16.58s3.67-5.33,1.52-8.09L260.25,274.9c-2.14-2.77-5.11-2.94-8.21-.54s-3.61,5.28-1.46,8.05Zm-4.84-56.48-1.94,2,24.28,23.43c1.21,1.16,6.09,5.38,10.92,9.85l-.1.1c-5.32-4.06-10.79-8.27-13-9.86l-26.57-18.83-2.92,3,36.37,35.09,1.95-2-23.18-22.36c-2-1.9-6.89-6.17-12.17-10.78l.1-.1c5,3.58,9.73,7,13,9.33l26.78,19.22,2.91-3Zm24.72-10.41,1.35-2.13-7.57-4.79c-2.9-1.83-5.42-1.52-7.74,2.15s-1.56,6.13,1.16,7.85l8,5.09a16.87,16.87,0,0,0,7.58,2.31l12.35,1a11.08,11.08,0,0,1,4.68,1.64l6.63,4.19a2.82,2.82,0,0,1,.93,4.15c-1.05,1.66-2.32,2.1-4,1l-7.4-4.68-1.34,2.13,7.63,4.83c2.78,1.76,5,.85,7-2.34,1.91-3,1.45-6-1.33-7.72L316.85,258a15.67,15.67,0,0,0-6.77-2.13l-12.55-1a14.64,14.64,0,0,1-6.29-2.24l-7.34-4.64c-1.95-1.23-2.15-2.61-.88-4.62,1.38-2.19,2.9-2,4.32-1.07Zm-7.24-16.07-1.29,2.48L331.4,257l1.29-2.49Zm9.52-25.54-.81,2.68,32.28,9.82c1.6.48,7.87,2,14.2,3.81l0,.13c-6.58-1.2-13.37-2.46-16.1-2.85l-32.24-4.69-1.22,4,48.35,14.71.82-2.68-30.81-9.37c-2.61-.79-8.94-2.35-15.74-4.06l0-.13c6.09.9,11.83,1.77,15.81,2.39l32.59,4.95,1.23-4Zm6.68-7c-2.21-.35-3.18-1.78-2.87-3.79a3.12,3.12,0,0,1,3.92-2.78l39.54,6.3a3.11,3.11,0,0,1,2.86,3.86c-.32,2-1.69,3.06-3.9,2.71Zm39.18,9.07c3.45.55,5.73-1.28,6.35-5.15s-1-6.39-4.43-6.95l-39.68-6.31c-3.45-.55-5.74,1.35-6.36,5.22s1,6.32,4.44,6.87ZM306,180.57c-2.24,0-3.41-1.32-3.37-3.35a3.1,3.1,0,0,1,3.49-3.29l40,.76a3.11,3.11,0,0,1,3.37,3.42c0,2-1.25,3.27-3.49,3.23Zm40,3.57c3.49.06,5.5-2.07,5.57-6s-1.84-6.2-5.34-6.26l-40.17-.76c-3.5-.07-5.51,2.13-5.58,6.05s1.84,6.13,5.34,6.19Zm-32.55-28.39-.31-2.5-8.89,1.07c-3.41.41-5.16,2.25-4.64,6.55s2.67,5.75,5.86,5.36l9.46-1.14a16.87,16.87,0,0,0,7.32-3l10.22-7a11.12,11.12,0,0,1,4.66-1.69l7.79-.94a2.83,2.83,0,0,1,3.34,2.63c.24,2-.47,3.09-2.48,3.33l-8.69,1,.3,2.5,9-1.08c3.26-.39,4.42-2.51,4-6.26-.42-3.54-2.64-5.53-5.9-5.14l-7.3.88a15.75,15.75,0,0,0-6.59,2.63l-10.35,7.17a14.52,14.52,0,0,1-6.29,2.24l-8.61,1c-2.3.28-3.33-.65-3.61-3-.31-2.57,1-3.36,2.67-3.56ZM295,137.59l1.21,3.36L345,127.43l-.83-2.31-29.9,8.29c-5.61,1.56-11.17,3.49-16.75,5.12l0-.13c5.4-2.16,10.76-4.61,16.07-7l28.22-13-1.33-3.69-30,7.89c-5.63,1.5-11.14,3.56-16.82,4.93l-.05-.13c5.42-2.1,10.81-4.48,16.16-6.77l28.43-12.37-.85-2.38L290.9,126.33l1.26,3.49,31-8.16c5.37-1.4,10.6-3.21,15.93-4.53l.05.14c-5.09,2-10,4.41-15,6.72Zm-3.7-22.26c-2,1.09-3.62.56-4.6-1.22a3.12,3.12,0,0,1,1.39-4.6L323.1,90.18a3.11,3.11,0,0,1,4.63,1.29c1,1.78.55,3.46-1.42,4.54Zm36.48-16.9c3.06-1.69,3.73-4.54,1.84-8s-4.69-4.45-7.76-2.76l-35.19,19.39c-3.06,1.69-3.7,4.6-1.8,8s4.65,4.39,7.72,2.7Zm-55.91-2.94,1.69,2.24,19.87-15,4,5.3-19.87,15,1.69,2.23,40.3-30.51-1.69-2.23-18.75,14.2-4-5.31L313.8,67.22,312.11,65Zm-14.3-14.3,2.32,2,2.4-2.74-2.32-2Zm23-31.42,1.9,1.66,4.47-5.11c1.52-1.74,2.66-1.86,3.92-.75s1.54,2.28,0,4.07L285.23,56c-3.66,4-10,5.28-13.48,9.22l-6.46,7.37,1.9,1.66,5.35-6.1a18.42,18.42,0,0,1,5.62-4.29l3.44-2a25.23,25.23,0,0,0,6.13-4.87l4.43-5c3.09-3.53,2.76-5.49-.13-8-2.58-2.26-5-1.51-6.9.65ZM245.9,72.2l3,1.91,30.22-40.69-2.07-1.31L258.56,57c-3.46,4.69-6.66,9.62-10.06,14.34l-.12-.07c2.93-5,5.66-10.26,8.35-15.43L271,28.29l-3.31-2.09L248.86,50.88c-3.52,4.65-6.6,9.66-10.24,14.23L238.5,65c3-5,5.78-10.18,8.59-15.28l14.82-27.23-2.13-1.35-24,44.62,3.14,2,19.43-25.47c3.37-4.42,6.38-9.05,9.78-13.37l.11.08c-2.8,4.69-5.18,9.64-7.69,14.52ZM229.22,56.92c-.86,2.07-2.48,2.68-4.35,1.9a3.1,3.1,0,0,1-1.79-4.45l15.37-37a3.11,3.11,0,0,1,4.42-1.87c1.88.78,2.59,2.36,1.73,4.43Zm18-36c1.34-3.23.09-5.88-3.53-7.38s-6.44-.56-7.78,2.67L220.47,53.36c-1.34,3.23,0,5.9,3.59,7.4s6.38.53,7.72-2.7ZM200.5,53l2.71.72,8.61-32.63c.43-1.62,1.73-7.94,3.28-14.33l.13,0c-.95,6.63-2,13.46-2.25,16.2L209.5,55.4l4.07,1.07L226.46,7.6l-2.7-.71L215.54,38c-.7,2.64-2,9-3.47,15.88l-.13,0c.67-6.12,1.32-11.89,1.8-15.89l3.72-32.75L213.4,4.16ZM179.18,36.78l-2.52-.11-.39,8.95c-.16,3.42,1.37,5.45,5.7,5.65s6.1-1.7,6.24-4.91l.43-9.51a16.92,16.92,0,0,0-1.76-7.72L181.63,17.9a11.06,11.06,0,0,1-.91-4.88l.35-7.83a2.82,2.82,0,0,1,3.14-2.87c2,.08,3,1,2.88,3l-.39,8.74,2.52.11.4-9c.15-3.29-1.75-4.77-5.52-4.94-3.57-.16-5.9,1.7-6,5l-.33,7.34a15.79,15.79,0,0,0,1.52,6.93l5.38,11.38a14.62,14.62,0,0,1,1.18,6.57l-.39,8.67c-.1,2.31-1.19,3.17-3.57,3.07-2.58-.12-3.15-1.54-3.08-3.22ZM168.83,51l2.8-.12L169.39.42l-2.8.12Zm-26.92,4.31,2.73-.61L137.26,21.8c-.37-1.63-2.12-7.84-3.69-14.23l.13,0c2.21,6.32,4.46,12.84,5.47,15.41L151,53.3l4.1-.92L144,3.07l-2.74.61,7,31.42c.6,2.66,2.36,8.94,4.24,15.69l-.14,0c-2.22-5.74-4.3-11.16-5.72-14.93L135,5.11l-4.1.91ZM132.44,53c.8,2.09.06,3.65-1.83,4.39a3.12,3.12,0,0,1-4.38-2L111.78,18a3.11,3.11,0,0,1,1.89-4.41c1.89-.73,3.5-.08,4.31,2ZM120.56,14.57c-1.26-3.27-4-4.31-7.65-2.9s-5,4.05-3.77,7.32l14.51,37.47c1.26,3.26,4.06,4.28,7.71,2.86s5-4,3.71-7.29Zm-4.74,45.66c1.09,2,.56,3.62-1.22,4.59a3.11,3.11,0,0,1-4.6-1.38L90.67,28.38A3.11,3.11,0,0,1,92,23.75c1.78-1,3.46-.55,4.54,1.42ZM98.92,23.75c-1.69-3.06-4.54-3.73-8-1.84s-4.45,4.69-2.76,7.76l19.39,35.19c1.69,3.06,4.6,3.7,8,1.8s4.39-4.65,2.7-7.72ZM90.59,66l-2,1.5,5.32,7.21c2,2.76,4.5,3.38,8,.8s3.68-5.15,1.76-7.74L98,60.1a16.92,16.92,0,0,0-6.22-4.89L80.62,49.78a11.13,11.13,0,0,1-3.77-3.22l-4.66-6.31A2.83,2.83,0,0,1,72.82,36c1.58-1.16,2.92-1.11,4.13.52l5.2,7,2-1.5-5.37-7.26c-2-2.65-4.36-2.61-7.4-.36-2.87,2.12-3.51,5-1.56,7.67l4.37,5.92a15.67,15.67,0,0,0,5.54,4.43L91.1,58a14.63,14.63,0,0,1,5.05,4.37l5.16,7c1.37,1.86,1.07,3.21-.85,4.63-2.08,1.53-3.42.78-4.42-.57ZM84,91.1l2.32-2.71L50.35,52.66l-1.59,1.86,22,21.87c4.14,4.1,8.56,8,12.74,12l-.09.1C78.87,84.89,74.09,81.44,69.35,78L44.12,59.94l-2.55,3L63.3,85.11c4.1,4.15,8.61,7.92,12.61,12.18l-.09.1c-4.5-3.67-9.24-7.17-13.88-10.68L37.11,68.13l-1.64,1.92L76.19,100.2l2.41-2.82L56.17,74.49c-3.88-4-8-7.61-11.82-11.59l.09-.1c4.24,3.44,8.8,6.51,13.26,9.69ZM66.44,105.3c1.91,1.18,2.26,2.88,1.2,4.6A3.11,3.11,0,0,1,63,111L28.86,90a3.11,3.11,0,0,1-1.15-4.66c1.06-1.73,2.73-2.18,4.64-1ZM33.76,81.89c-3-1.84-5.79-1-7.84,2.32s-1.56,6.27,1.42,8.11l34.21,21.07c3,1.83,5.82,1,7.88-2.38S71,104.79,68,103Zm25,50.1,1.11-2.57L37,119.57l2.63-6.11,22.89,9.85,1.11-2.57-46.43-20-1.1,2.58,21.6,9.29-2.62,6.11-21.61-9.3L12.33,112Z" transform="translate(0)"/></g></g></g></svg>