<?xml version="1.0" encoding="utf-8"?>
<!-- Generator: Adobe Illustrator 23.0.4, SVG Export Plug-In . SVG Version: 6.00 Build 0)  -->
<svg version="1.1" id="Layer_1" xmlns="http://www.w3.org/2000/svg" xmlns:xlink="http://www.w3.org/1999/xlink" x="0px" y="0px"
	 viewBox="0 0 351.8 351.6" style="enable-background:new 0 0 351.8 351.6;" xml:space="preserve">
<style type="text/css">
	.st0{clip-path:url(#SVGID_2_);}
	.st1{fill:none;stroke:#FFFFFF;stroke-width:0.4;}
	.st2{fill:none;}
</style>
<title>Asset 1</title>
<g>
	<g id="Layer_1-2">
		<g>
			<g>
				<defs>
					<rect id="SVGID_1_" width="351.8" height="351.6"/>
				</defs>
				<clipPath id="SVGID_2_">
					<use xlink:href="#SVGID_1_"  style="overflow:visible;"/>
				</clipPath>
				<g class="st0">
					<path class="st1" d="M52.9,153.9l0.6-3l-3.6-0.7l-0.6,3L52.9,153.9z M14.2,150.2l0.5-2.5L8,146.5c-2.3-0.4-2.9-1.3-2.7-3
						s1.2-2.5,3.5-2.1l8.2,1.5c5.3,1.1,9.7,5.9,14.8,6.9l9.6,1.8l0.5-2.5l-8-1.5c-2.3-0.5-4.6-1.3-6.6-2.6l-3.4-1.9
						c-2.3-1.3-4.7-2.2-7.3-2.8l-6.7-1.2c-4.6-0.9-6.1,0.4-6.8,4.2c-0.6,3.4,1.3,5.1,4.1,5.6L14.2,150.2z M51.2,168.5l0.1-3.6
						l-50.4-5.4l0,2.5l30.9,3.3c5.8,0.6,11.7,0.9,17.5,1.4v0.1c-5.8,0-11.7,0.3-17.5,0.6l-31,1.7L0.7,173l30.8,3.7
						c5.8,0.7,11.7,0.8,17.5,1.6v0.1c-5.8,0-11.7,0.2-17.5,0.4l-31,1.1l-0.1,2.5l50.6-2l0.1-3.7l-32-3.7c-5.5-0.7-11-0.9-16.5-1.6
						v-0.1c5.5,0,10.9-0.4,16.4-0.7L51.2,168.5z M46.6,190.6c2.2-0.3,3.6,0.8,3.8,2.8c0.4,1.7-0.7,3.3-2.4,3.7
						c-0.2,0-0.4,0.1-0.6,0.1l-39.6,5.3c-1.7,0.4-3.3-0.7-3.7-2.3c0-0.2-0.1-0.4-0.1-0.6c-0.3-2,0.7-3.4,3-3.7L46.6,190.6z
						 M6.5,193.1c-3.5,0.5-5.1,2.9-4.6,6.8s2.8,5.9,6.2,5.4l39.8-5.3c3.5-0.5,5.1-2.9,4.6-6.8s-2.7-5.8-6.2-5.3L6.5,193.1z
						 M57.9,217.3l-0.8-2.7L24.7,224c-1.6,0.5-7.7,2.6-14,4.6v-0.1c6.2-2.6,12.5-5.2,15-6.4l29.6-13.7l-1.2-4L5.6,218.5l0.8,2.7
						l30.9-9c2.6-0.8,8.8-2.9,15.4-5.2v0.1c-5.6,2.6-10.9,5-14.5,6.6l-30,13.7l1.2,4L57.9,217.3z M54.8,244l1.2,2.2l7.9-4.2
						c3-1.6,4-4,2-7.8s-4.6-4.4-7.4-2.9l-8.4,4.5c-2.3,1.3-4.3,3.2-5.7,5.5l-7,10.2c-1,1.4-2.3,2.5-3.7,3.3l-6.9,3.7
						c-1.3,0.8-3.1,0.4-3.9-0.9c-0.1-0.1-0.1-0.2-0.2-0.3c-0.9-1.7-0.7-3.1,1.1-4l7.7-4.1l-1.2-2.2l-8,4.3c-2.9,1.6-3.2,3.9-1.4,7.3
						c1.7,3.1,4.5,4.2,7.4,2.6l6.5-3.5c2.1-1.2,3.9-2.9,5.2-4.8l7-10.4c1.3-1.8,3-3.3,5-4.4l7.7-4.1c2-1.1,3.3-0.6,4.4,1.5
						c1.2,2.3,0.3,3.5-1.2,4.3L54.8,244z M72.4,245.6l-1.5-2.4l-42.4,27.5l1.5,2.4L72.4,245.6z M89.9,266.5l-1.9-2l-24.6,23.1
						c-1.2,1.1-5.7,5.8-10.4,10.4l-0.1-0.1c4.3-5.1,8.8-10.4,10.5-12.6l20.1-25.6l-2.9-3.1l-36.8,34.7l1.9,2l23.4-22.1
						c2-1.9,6.5-6.6,11.3-11.6l0.1,0.1c-3.8,4.8-7.4,9.4-9.9,12.5l-20.5,25.9l2.9,3.1L89.9,266.5z M92.7,275.8
						c1.4-1.8,3.1-1.9,4.7-0.6c1.4,0.9,1.8,2.9,0.9,4.3c-0.1,0.2-0.2,0.3-0.4,0.5L73,311.3c-0.9,1.4-2.8,1.9-4.3,1
						c-0.2-0.1-0.3-0.2-0.5-0.4c-1.6-1.3-1.8-3-0.4-4.7L92.7,275.8z M65.5,305.4c-2.2,2.7-1.7,5.6,1.4,8.1c3.1,2.4,6,2.3,8.2-0.4
						l25-31.4c2.2-2.7,1.6-5.7-1.4-8.1s-6-2.3-8.2,0.5L65.5,305.4z M107.4,286.4c1.1-1.9,2.8-2.3,4.6-1.3c1.6,0.7,2.2,2.6,1.5,4.1
						c-0.1,0.2-0.2,0.4-0.3,0.5L93,324.4c-0.7,1.6-2.5,2.3-4.1,1.6c-0.2-0.1-0.4-0.2-0.5-0.3c-1.8-1-2.2-2.7-1.1-4.6L107.4,286.4z
						 M84.8,319.7c-1.8,3-0.9,5.8,2.5,7.8s6.3,1.4,8.1-1.6l20.2-34.7c1.8-3,0.8-5.8-2.6-7.8s-6.2-1.4-8,1.6L84.8,319.7z
						 M125.1,305.2l2.3,1l3.5-8.2c1.4-3.1,0.6-5.6-3.3-7.3s-6.3-0.6-7.6,2.4l-3.8,8.8c-1,2.5-1.4,5.2-1.1,7.8l0.9,12.4
						c0.1,1.7-0.2,3.3-0.9,4.9l-3.1,7.2c-0.5,1.5-2.1,2.3-3.6,1.8c-0.1,0-0.3-0.1-0.4-0.2c-1.8-0.8-2.4-2-1.6-3.8l3.5-8l-2.3-1
						l-3.5,8.2c-1.3,3-0.1,5.1,3.4,6.6c3.3,1.4,6.1,0.5,7.4-2.5l2.9-6.8c0.9-2.2,1.2-4.6,1-7l-1-12.5c-0.1-2.3,0.3-4.5,1.2-6.6
						l3.4-8c0.9-2.1,2.2-2.5,4.4-1.6c2.4,1,2.4,2.5,1.7,4.1L125.1,305.2z M150.2,298l-3.5-0.6l-12.3,49.2l2.4,0.4l7.5-30.1
						c1.4-5.7,2.5-11.4,3.8-17.1h0.1c-0.8,5.8-1.3,11.6-1.8,17.5l-2.6,30.9l3.9,0.7l7.9-30c1.5-5.6,2.4-11.5,4-17.1h0.1
						c-0.9,5.8-1.4,11.6-2.1,17.4l-3.2,30.8l2.5,0.4l5-50.4l-3.7-0.6l-8.2,31c-1.4,5.4-2.4,10.8-3.9,16.1H146
						c0.8-5.4,1.1-10.9,1.5-16.4L150.2,298z M171.4,305.8c0-2.2,1.3-3.4,3.3-3.4c1.7-0.1,3.2,1.1,3.3,2.9c0,0.2,0,0.4,0,0.6l-0.2,40
						c0.2,1.7-1.1,3.2-2.8,3.4c-0.2,0-0.4,0-0.6,0c-2,0-3.3-1.2-3.3-3.5L171.4,305.8z M168.4,345.9c0,3.5,2.1,5.5,6,5.5
						s6.2-1.9,6.2-5.4l0.2-40.2c0-3.5-2.2-5.5-6.1-5.5s-6.1,1.9-6.1,5.4L168.4,345.9z M198.3,298.7l-2.8,0.4l3.3,24.7l-6.6,0.9
						l-3.4-24.7l-2.8,0.4l6.7,50.1l2.8-0.4l-3.1-23.3l6.6-0.9l3.1,23.3l2.8-0.4L198.3,298.7z M217.8,293.4l-2.9,1l1.2,3.4l2.9-1
						L217.8,293.4z M233.7,328.9l-2.4,0.8l2.2,6.4c0.8,2.2,0.3,3.2-1.3,3.8s-2.7,0.2-3.5-2L226,330c-1.6-5.1,0.4-11.3-1.3-16.3
						l-3.2-9.3l-2.4,0.8l2.6,7.7c0.8,2.3,1.1,4.6,0.9,7v4c0,2.6,0.4,5.2,1.2,7.7l2.2,6.4c1.5,4.4,3.4,5.1,7,3.9
						c3.2-1.1,3.8-3.6,2.9-6.3L233.7,328.9z M231.4,287.7l-3.1,1.7l20.5,46.3l2.2-1.2l-12.6-28.4c-2.4-5.3-5.1-10.5-7.5-15.8
						l0.1-0.1c2.9,5,6.1,10,9.3,14.9l17,26l3.5-1.9l-12.2-28.6c-2.3-5.4-5.1-10.5-7.3-15.9l0.1-0.1c2.9,5,6,10,9.1,15l16.4,26.3
						l2.2-1.2L242,282l-3.3,1.8l12.6,29.5c2.2,5.1,4.7,10,6.8,15.1l-0.1,0.1c-2.7-4.7-5.8-9.3-8.8-13.8L231.4,287.7z M252.9,280.7
						c-1.4-1.8-1.1-3.5,0.5-4.7c1.3-1.2,3.2-1.1,4.4,0.2c0.1,0.1,0.3,0.3,0.4,0.5l24.6,31.6c1.2,1.2,1.2,3.2-0.1,4.4
						c-0.1,0.1-0.3,0.3-0.5,0.4c-1.6,1.2-3.3,1.1-4.7-0.7L252.9,280.7z M275.3,314.1c2.1,2.8,5.1,3,8.2,0.6s3.7-5.3,1.5-8.1
						l-24.7-31.7c-2.1-2.8-5.1-2.9-8.2-0.5s-3.6,5.3-1.5,8L275.3,314.1z M270.4,257.6l-1.9,2l24.3,23.4c1.2,1.2,6.1,5.4,10.9,9.9
						l-0.1,0.1c-5.3-4.1-10.8-8.3-13-9.9L264,264.3l-2.9,3l36.4,35.1l2-2L276.2,278c-2-1.9-6.9-6.2-12.2-10.8l0.1-0.1
						c5,3.6,9.7,7,13,9.3l26.8,19.2l2.9-3L270.4,257.6z M295.1,247.2l1.4-2.1l-7.6-4.8c-2.9-1.8-5.4-1.5-7.7,2.1s-1.6,6.1,1.2,7.9
						l8,5.1c2.3,1.4,4.9,2.2,7.6,2.3l12.4,1c1.7,0.2,3.3,0.7,4.7,1.6l6.6,4.2c1.4,0.7,1.9,2.5,1.1,3.8c-0.1,0.1-0.1,0.2-0.2,0.3
						c-1,1.7-2.3,2.1-4,1l-7.4-4.7l-1.3,2.1l7.6,4.8c2.8,1.8,5,0.9,7-2.3c1.9-3,1.5-6-1.3-7.7l-6.2-3.9c-2.1-1.2-4.4-1.9-6.8-2.1
						l-12.5-1c-2.2-0.3-4.4-1-6.3-2.2l-7.3-4.6c-2-1.2-2.1-2.6-0.9-4.6c1.4-2.2,2.9-2,4.3-1.1L295.1,247.2z M287.9,231.1l-1.3,2.5
						l44.8,23.4l1.3-2.5L287.9,231.1z M297.4,205.6l-0.8,2.7l32.3,9.8c1.6,0.5,7.9,2,14.2,3.8v0.1c-6.6-1.2-13.4-2.5-16.1-2.9
						l-32.2-4.7l-1.2,4l48.4,14.7l0.8-2.7L312,221c-2.6-0.8-8.9-2.4-15.7-4.1v0.1c6.1,0.9,11.8,1.8,15.8,2.4l32.6,4.9l1.2-4
						L297.4,205.6z M304.1,198.6c-2.2-0.4-3.2-1.8-2.9-3.8c0.1-1.7,1.6-3,3.3-2.9c0.2,0,0.4,0,0.6,0.1l39.5,6.3
						c1.7,0.1,3,1.5,2.9,3.3c0,0.2,0,0.4-0.1,0.6c-0.3,2-1.7,3.1-3.9,2.7L304.1,198.6z M343.3,207.7c3.5,0.6,5.7-1.3,6.4-5.1
						s-1-6.4-4.4-6.9l-39.7-6.3c-3.5-0.6-5.7,1.4-6.4,5.2s1,6.3,4.4,6.9L343.3,207.7z M306,180.6c-2.2,0-3.4-1.3-3.4-3.4
						c-0.1-1.7,1.2-3.2,2.9-3.3c0.2,0,0.4,0,0.6,0l40,0.8c1.7-0.2,3.2,1.1,3.4,2.8c0,0.2,0,0.4,0,0.6c0,2-1.2,3.3-3.5,3.2L306,180.6
						z M346,184.1c3.5,0.1,5.5-2.1,5.6-6s-1.8-6.2-5.3-6.3l-40.2-0.8c-3.5-0.1-5.5,2.1-5.6,6.1s1.8,6.1,5.3,6.2L346,184.1z
						 M313.5,155.8l-0.3-2.5l-8.9,1.1c-3.4,0.4-5.2,2.2-4.6,6.6s2.7,5.8,5.9,5.4l9.5-1.1c2.6-0.4,5.2-1.4,7.3-3l10.2-7
						c1.4-0.9,3-1.5,4.7-1.7l7.8-0.9c1.5-0.3,3,0.7,3.3,2.3c0,0.1,0,0.2,0,0.4c0.2,2-0.5,3.1-2.5,3.3l-8.7,1l0.3,2.5l9-1.1
						c3.3-0.4,4.4-2.5,4-6.3c-0.4-3.5-2.6-5.5-5.9-5.1l-7.3,0.9c-2.4,0.4-4.6,1.3-6.6,2.6l-10.4,7.2c-1.9,1.2-4,2-6.3,2.2l-8.6,1
						c-2.3,0.3-3.3-0.6-3.6-3c-0.3-2.6,1-3.4,2.7-3.6L313.5,155.8z M295,137.6l1.2,3.4l48.8-13.5l-0.8-2.3l-29.9,8.3
						c-5.6,1.6-11.2,3.5-16.8,5.1v-0.1c5.4-2.2,10.8-4.6,16.1-7l28.2-13l-1.3-3.7l-30,7.9c-5.6,1.5-11.1,3.6-16.8,4.9v-0.1
						c5.4-2.1,10.8-4.5,16.2-6.8l28.4-12.4l-0.9-2.4l-46.5,20.5l1.3,3.5l31-8.2c5.4-1.4,10.6-3.2,15.9-4.5v0.1c-5.1,2-10,4.4-15,6.7
						L295,137.6z M291.3,115.3c-2,1.1-3.6,0.6-4.6-1.2c-1-1.4-0.6-3.4,0.9-4.3c0.2-0.1,0.3-0.2,0.5-0.3l35-19.3
						c1.4-1,3.3-0.6,4.3,0.8c0.1,0.2,0.2,0.3,0.3,0.5c1,1.8,0.5,3.5-1.4,4.5L291.3,115.3z M327.8,98.4c3.1-1.7,3.7-4.5,1.8-8
						s-4.7-4.4-7.8-2.8L286.6,107c-3.1,1.7-3.7,4.6-1.8,8s4.6,4.4,7.7,2.7L327.8,98.4z M271.9,95.5l1.7,2.2l19.9-15l4,5.3l-19.9,15
						l1.7,2.2l40.3-30.5l-1.7-2.2l-18.8,14.2l-4-5.3l18.7-14.2l-1.7-2.2L271.9,95.5z M257.6,81.2l2.3,2l2.4-2.7l-2.3-2L257.6,81.2z
						 M280.6,49.8l1.9,1.7l4.5-5.1c1.5-1.7,2.7-1.9,3.9-0.8s1.5,2.3,0,4.1l-5.6,6.4c-3.7,4-10,5.3-13.5,9.2l-6.5,7.4l1.9,1.7
						l5.4-6.1c1.6-1.8,3.5-3.2,5.6-4.3l3.4-2c2.3-1.3,4.4-2.9,6.1-4.9l4.4-5c3.1-3.5,2.8-5.5-0.1-8c-2.6-2.3-5-1.5-6.9,0.7
						L280.6,49.8z M245.9,72.2l3,1.9l30.2-40.7l-2.1-1.3L258.6,57c-3.5,4.7-6.7,9.6-10.1,14.3l-0.1-0.1c2.9-5,5.7-10.3,8.4-15.4
						L271,28.3l-3.3-2.1l-18.8,24.7c-3.5,4.7-6.6,9.7-10.2,14.2l-0.1-0.1c3-5,5.8-10.2,8.6-15.3L262,22.5l-2.1-1.4l-24,44.6l3.1,2
						l19.4-25.5c3.4-4.4,6.4-9,9.8-13.4l0.1,0.1c-2.8,4.7-5.2,9.6-7.7,14.5L245.9,72.2z M229.2,56.9c-0.9,2.1-2.5,2.7-4.4,1.9
						c-1.6-0.5-2.5-2.3-2-3.9c0.1-0.2,0.1-0.4,0.2-0.6l15.4-37c0.5-1.6,2.2-2.6,3.9-2.1c0.2,0.1,0.4,0.1,0.6,0.2
						c1.9,0.8,2.6,2.4,1.7,4.4L229.2,56.9z M247.2,20.9c1.3-3.2,0.1-5.9-3.5-7.4s-6.4-0.6-7.8,2.7l-15.4,37.2
						c-1.3,3.2,0,5.9,3.6,7.4s6.4,0.5,7.7-2.7L247.2,20.9z M200.5,53l2.7,0.7l8.6-32.6c0.4-1.6,1.7-7.9,3.3-14.3h0.1
						c-0.9,6.6-2,13.5-2.2,16.2l-3.5,32.4l4.1,1.1l12.9-48.9l-2.7-0.7L215.5,38c-0.7,2.6-2,9-3.5,15.9h-0.1
						c0.7-6.1,1.3-11.9,1.8-15.9l3.7-32.8l-4.1-1.1L200.5,53z M179.2,36.8l-2.5-0.1l-0.4,9c-0.2,3.4,1.4,5.5,5.7,5.7
						s6.1-1.7,6.2-4.9l0.4-9.5c0-2.7-0.6-5.3-1.8-7.7l-5.2-11.2c-0.7-1.5-1-3.2-0.9-4.9l0.4-7.8c0-1.6,1.2-2.8,2.8-2.9
						c0.1,0,0.3,0,0.4,0c2,0.1,3,1,2.9,3l-0.4,8.7l2.5,0.1l0.4-9c0.1-3.3-1.8-4.8-5.5-4.9c-3.6-0.2-5.9,1.7-6,5l-0.3,7.3
						c0,2.4,0.5,4.8,1.5,6.9l5.4,11.4c0.9,2.1,1.3,4.3,1.2,6.6l-0.4,8.7c-0.1,2.3-1.2,3.2-3.6,3.1c-2.6-0.1-3.1-1.5-3.1-3.2
						L179.2,36.8z M168.8,51l2.8-0.1l-2.2-50.5l-2.8,0.1L168.8,51z M141.9,55.3l2.7-0.6l-7.4-32.9c-0.4-1.6-2.1-7.8-3.7-14.2h0.1
						c2.2,6.3,4.5,12.8,5.5,15.4L151,53.3l4.1-0.9L144,3.1l-2.7,0.6l7,31.4c0.6,2.7,2.4,8.9,4.2,15.7h-0.1
						c-2.2-5.7-4.3-11.2-5.7-14.9L135,5.1L130.9,6L141.9,55.3z M132.4,53c0.8,2.1,0.1,3.7-1.8,4.4c-1.5,0.8-3.4,0.1-4.2-1.4
						c-0.1-0.2-0.2-0.4-0.2-0.6L111.8,18c-0.8-1.5-0.2-3.4,1.3-4.2c0.2-0.1,0.4-0.2,0.6-0.2c1.9-0.7,3.5-0.1,4.3,2L132.4,53z
						 M120.6,14.6c-1.3-3.3-4-4.3-7.7-2.9s-5,4.1-3.8,7.3l14.5,37.5c1.3,3.3,4.1,4.3,7.7,2.9c3.7-1.4,5-4,3.7-7.3L120.6,14.6z
						 M115.8,60.2c1.1,2,0.6,3.6-1.2,4.6c-1.4,1-3.4,0.6-4.3-0.9c-0.1-0.2-0.2-0.3-0.3-0.5l-19.3-35c-1-1.4-0.6-3.3,0.8-4.3
						c0.2-0.1,0.4-0.2,0.5-0.3c1.8-1,3.5-0.5,4.5,1.4L115.8,60.2z M98.9,23.8c-1.7-3.1-4.5-3.7-8-1.8s-4.4,4.7-2.8,7.8L107.5,65
						c1.7,3.1,4.6,3.7,8,1.8s4.4-4.7,2.7-7.7L98.9,23.8z M90.6,66l-2,1.5l5.3,7.2c2,2.8,4.5,3.4,8,0.8s3.7-5.2,1.8-7.7L98,60.1
						c-1.7-2.1-3.8-3.8-6.2-4.9l-11.2-5.4c-1.5-0.8-2.8-1.9-3.8-3.2l-4.7-6.3c-1-1.2-0.9-3,0.3-4c0.1-0.1,0.2-0.2,0.3-0.3
						c1.6-1.2,2.9-1.1,4.1,0.5l5.2,7l2-1.5l-5.4-7.3c-2-2.7-4.4-2.6-7.4-0.4c-2.9,2.1-3.5,5-1.6,7.7l4.4,5.9
						c1.5,1.9,3.4,3.4,5.5,4.4L91.1,58c2,1,3.7,2.5,5.1,4.4l5.2,7c1.4,1.9,1.1,3.2-0.8,4.6c-2.1,1.5-3.4,0.8-4.4-0.6L90.6,66z
						 M84,91.1l2.3-2.7l-36-35.7l-1.6,1.9l22,21.9c4.1,4.1,8.6,8,12.7,12l-0.1,0.1c-4.5-3.6-9.3-7-14.1-10.5L44.1,59.9l-2.5,3
						l21.7,22.2c4.1,4.2,8.6,7.9,12.6,12.2l-0.1,0.1c-4.5-3.7-9.2-7.2-13.9-10.7L37.1,68.1L35.5,70l40.7,30.2l2.4-2.8L56.2,74.5
						c-3.9-4-8-7.6-11.8-11.6l0.1-0.1c4.2,3.4,8.8,6.5,13.3,9.7L84,91.1z M66.4,105.3c1.9,1.2,2.3,2.9,1.2,4.6
						c-0.8,1.5-2.6,2.2-4.2,1.4c-0.2-0.1-0.3-0.2-0.5-0.3l-34-21c-1.5-0.7-2.2-2.6-1.5-4.1c0.1-0.2,0.2-0.4,0.3-0.5
						c1.1-1.7,2.7-2.2,4.6-1L66.4,105.3z M33.8,81.9c-3-1.8-5.8-1-7.8,2.3s-1.6,6.3,1.4,8.1l34.2,21.1c3,1.8,5.8,1,7.9-2.4
						s1.6-6.2-1.4-8L33.8,81.9z M58.8,132l1.1-2.6L37,119.6l2.6-6.1l22.9,9.8l1.1-2.6l-46.4-20l-1.1,2.6l21.6,9.3l-2.6,6.1
						l-21.6-9.3l-1.1,2.6L58.8,132z"/>
					<path class="st2" d="M52.9,153.9l0.6-3l-3.6-0.7l-0.6,3L52.9,153.9z M14.2,150.2l0.5-2.5L8,146.5c-2.3-0.4-2.9-1.3-2.7-3
						s1.2-2.5,3.5-2.1l8.2,1.5c5.3,1.1,9.7,5.9,14.8,6.9l9.6,1.8l0.5-2.5l-8-1.5c-2.3-0.5-4.6-1.3-6.6-2.6l-3.4-1.9
						c-2.3-1.3-4.7-2.2-7.3-2.8l-6.7-1.2c-4.6-0.9-6.1,0.4-6.8,4.2c-0.6,3.4,1.3,5.1,4.1,5.6L14.2,150.2z M51.2,168.5l0.1-3.6
						l-50.4-5.4l0,2.5l30.9,3.3c5.8,0.6,11.7,0.9,17.5,1.4v0.1c-5.8,0-11.7,0.3-17.5,0.6l-31,1.7L0.7,173l30.8,3.7
						c5.8,0.7,11.7,0.8,17.5,1.6v0.1c-5.8,0-11.7,0.2-17.5,0.4l-31,1.1l-0.1,2.5l50.6-2l0.1-3.7l-32-3.7c-5.5-0.7-11-0.9-16.5-1.6
						v-0.1c5.5,0,10.9-0.4,16.4-0.7L51.2,168.5z M46.6,190.6c2.2-0.3,3.6,0.8,3.8,2.8c0.4,1.7-0.7,3.3-2.4,3.7
						c-0.2,0-0.4,0.1-0.6,0.1l-39.6,5.3c-1.7,0.4-3.3-0.7-3.7-2.3c0-0.2-0.1-0.4-0.1-0.6c-0.3-2,0.7-3.4,3-3.7L46.6,190.6z
						 M6.5,193.1c-3.5,0.5-5.1,2.9-4.6,6.8s2.8,5.9,6.2,5.4l39.8-5.3c3.5-0.5,5.1-2.9,4.6-6.8s-2.7-5.8-6.2-5.3L6.5,193.1z
						 M57.9,217.3l-0.8-2.7L24.7,224c-1.6,0.5-7.7,2.6-14,4.6v-0.1c6.2-2.6,12.5-5.2,15-6.4l29.6-13.7l-1.2-4L5.6,218.5l0.8,2.7
						l30.9-9c2.6-0.8,8.8-2.9,15.4-5.2v0.1c-5.6,2.6-10.9,5-14.5,6.6l-30,13.7l1.2,4L57.9,217.3z M54.8,244l1.2,2.2l7.9-4.2
						c3-1.6,4-4,2-7.8s-4.6-4.4-7.4-2.9l-8.4,4.5c-2.3,1.3-4.3,3.2-5.7,5.5l-7,10.2c-1,1.4-2.3,2.5-3.7,3.3l-6.9,3.7
						c-1.3,0.8-3.1,0.4-3.9-0.9c-0.1-0.1-0.1-0.2-0.2-0.3c-0.9-1.7-0.7-3.1,1.1-4l7.7-4.1l-1.2-2.2l-8,4.3c-2.9,1.6-3.2,3.9-1.4,7.3
						c1.7,3.1,4.5,4.2,7.4,2.6l6.5-3.5c2.1-1.2,3.9-2.9,5.2-4.8l7-10.4c1.3-1.8,3-3.3,5-4.4l7.7-4.1c2-1.1,3.3-0.6,4.4,1.5
						c1.2,2.3,0.3,3.5-1.2,4.3L54.8,244z M72.4,245.6l-1.5-2.4l-42.4,27.5l1.5,2.4L72.4,245.6z M89.9,266.5l-1.9-2l-24.6,23.1
						c-1.2,1.1-5.7,5.8-10.4,10.4l-0.1-0.1c4.3-5.1,8.8-10.4,10.5-12.6l20.1-25.6l-2.9-3.1l-36.8,34.7l1.9,2l23.4-22.1
						c2-1.9,6.5-6.6,11.3-11.6l0.1,0.1c-3.8,4.8-7.4,9.4-9.9,12.5l-20.5,25.9l2.9,3.1L89.9,266.5z M92.7,275.8
						c1.4-1.8,3.1-1.9,4.7-0.6c1.4,0.9,1.8,2.9,0.9,4.3c-0.1,0.2-0.2,0.3-0.4,0.5L73,311.3c-0.9,1.4-2.8,1.9-4.3,1
						c-0.2-0.1-0.3-0.2-0.5-0.4c-1.6-1.3-1.8-3-0.4-4.7L92.7,275.8z M65.5,305.4c-2.2,2.7-1.7,5.6,1.4,8.1c3.1,2.4,6,2.3,8.2-0.4
						l25-31.4c2.2-2.7,1.6-5.7-1.4-8.1s-6-2.3-8.2,0.5L65.5,305.4z M107.4,286.4c1.1-1.9,2.8-2.3,4.6-1.3c1.6,0.7,2.2,2.6,1.5,4.1
						c-0.1,0.2-0.2,0.4-0.3,0.5L93,324.4c-0.7,1.6-2.5,2.3-4.1,1.6c-0.2-0.1-0.4-0.2-0.5-0.3c-1.8-1-2.2-2.7-1.1-4.6L107.4,286.4z
						 M84.8,319.7c-1.8,3-0.9,5.8,2.5,7.8s6.3,1.4,8.1-1.6l20.2-34.7c1.8-3,0.8-5.8-2.6-7.8s-6.2-1.4-8,1.6L84.8,319.7z
						 M125.1,305.2l2.3,1l3.5-8.2c1.4-3.1,0.6-5.6-3.3-7.3s-6.3-0.6-7.6,2.4l-3.8,8.8c-1,2.5-1.4,5.2-1.1,7.8l0.9,12.4
						c0.1,1.7-0.2,3.3-0.9,4.9l-3.1,7.2c-0.5,1.5-2.1,2.3-3.6,1.8c-0.1,0-0.3-0.1-0.4-0.2c-1.8-0.8-2.4-2-1.6-3.8l3.5-8l-2.3-1
						l-3.5,8.2c-1.3,3-0.1,5.1,3.4,6.6c3.3,1.4,6.1,0.5,7.4-2.5l2.9-6.8c0.9-2.2,1.2-4.6,1-7l-1-12.5c-0.1-2.3,0.3-4.5,1.2-6.6
						l3.4-8c0.9-2.1,2.2-2.5,4.4-1.6c2.4,1,2.4,2.5,1.7,4.1L125.1,305.2z M150.2,298l-3.5-0.6l-12.3,49.2l2.4,0.4l7.5-30.1
						c1.4-5.7,2.5-11.4,3.8-17.1h0.1c-0.8,5.8-1.3,11.6-1.8,17.5l-2.6,30.9l3.9,0.7l7.9-30c1.5-5.6,2.4-11.5,4-17.1h0.1
						c-0.9,5.8-1.4,11.6-2.1,17.4l-3.2,30.8l2.5,0.4l5-50.4l-3.7-0.6l-8.2,31c-1.4,5.4-2.4,10.8-3.9,16.1H146
						c0.8-5.4,1.1-10.9,1.5-16.4L150.2,298z M171.4,305.8c0-2.2,1.3-3.4,3.3-3.4c1.7-0.1,3.2,1.1,3.3,2.9c0,0.2,0,0.4,0,0.6l-0.2,40
						c0.2,1.7-1.1,3.2-2.8,3.4c-0.2,0-0.4,0-0.6,0c-2,0-3.3-1.2-3.3-3.5L171.4,305.8z M168.4,345.9c0,3.5,2.1,5.5,6,5.5
						s6.2-1.9,6.2-5.4l0.2-40.2c0-3.5-2.2-5.5-6.1-5.5s-6.1,1.9-6.1,5.4L168.4,345.9z M198.3,298.7l-2.8,0.4l3.3,24.7l-6.6,0.9
						l-3.4-24.7l-2.8,0.4l6.7,50.1l2.8-0.4l-3.1-23.3l6.6-0.9l3.1,23.3l2.8-0.4L198.3,298.7z M217.8,293.4l-2.9,1l1.2,3.4l2.9-1
						L217.8,293.4z M233.7,328.9l-2.4,0.8l2.2,6.4c0.8,2.2,0.3,3.2-1.3,3.8s-2.7,0.2-3.5-2L226,330c-1.6-5.1,0.4-11.3-1.3-16.3
						l-3.2-9.3l-2.4,0.8l2.6,7.7c0.8,2.3,1.1,4.6,0.9,7v4c0,2.6,0.4,5.2,1.2,7.7l2.2,6.4c1.5,4.4,3.4,5.1,7,3.9
						c3.2-1.1,3.8-3.6,2.9-6.3L233.7,328.9z M231.4,287.7l-3.1,1.7l20.5,46.3l2.2-1.2l-12.6-28.4c-2.4-5.3-5.1-10.5-7.5-15.8
						l0.1-0.1c2.9,5,6.1,10,9.3,14.9l17,26l3.5-1.9l-12.2-28.6c-2.3-5.4-5.1-10.5-7.3-15.9l0.1-0.1c2.9,5,6,10,9.1,15l16.4,26.3
						l2.2-1.2L242,282l-3.3,1.8l12.6,29.5c2.2,5.1,4.7,10,6.8,15.1l-0.1,0.1c-2.7-4.7-5.8-9.3-8.8-13.8L231.4,287.7z M252.9,280.7
						c-1.4-1.8-1.1-3.5,0.5-4.7c1.3-1.2,3.2-1.1,4.4,0.2c0.1,0.1,0.3,0.3,0.4,0.5l24.6,31.6c1.2,1.2,1.2,3.2-0.1,4.4
						c-0.1,0.1-0.3,0.3-0.5,0.4c-1.6,1.2-3.3,1.1-4.7-0.7L252.9,280.7z M275.3,314.1c2.1,2.8,5.1,3,8.2,0.6s3.7-5.3,1.5-8.1
						l-24.7-31.7c-2.1-2.8-5.1-2.9-8.2-0.5s-3.6,5.3-1.5,8L275.3,314.1z M270.4,257.6l-1.9,2l24.3,23.4c1.2,1.2,6.1,5.4,10.9,9.9
						l-0.1,0.1c-5.3-4.1-10.8-8.3-13-9.9L264,264.3l-2.9,3l36.4,35.1l2-2L276.2,278c-2-1.9-6.9-6.2-12.2-10.8l0.1-0.1
						c5,3.6,9.7,7,13,9.3l26.8,19.2l2.9-3L270.4,257.6z M295.1,247.2l1.4-2.1l-7.6-4.8c-2.9-1.8-5.4-1.5-7.7,2.1s-1.6,6.1,1.2,7.9
						l8,5.1c2.3,1.4,4.9,2.2,7.6,2.3l12.4,1c1.7,0.2,3.3,0.7,4.7,1.6l6.6,4.2c1.4,0.7,1.9,2.5,1.1,3.8c-0.1,0.1-0.1,0.2-0.2,0.3
						c-1,1.7-2.3,2.1-4,1l-7.4-4.7l-1.3,2.1l7.6,4.8c2.8,1.8,5,0.9,7-2.3c1.9-3,1.5-6-1.3-7.7l-6.2-3.9c-2.1-1.2-4.4-1.9-6.8-2.1
						l-12.5-1c-2.2-0.3-4.4-1-6.3-2.2l-7.3-4.6c-2-1.2-2.1-2.6-0.9-4.6c1.4-2.2,2.9-2,4.3-1.1L295.1,247.2z M287.9,231.1l-1.3,2.5
						l44.8,23.4l1.3-2.5L287.9,231.1z M297.4,205.6l-0.8,2.7l32.3,9.8c1.6,0.5,7.9,2,14.2,3.8v0.1c-6.6-1.2-13.4-2.5-16.1-2.9
						l-32.2-4.7l-1.2,4l48.4,14.7l0.8-2.7L312,221c-2.6-0.8-8.9-2.4-15.7-4.1v0.1c6.1,0.9,11.8,1.8,15.8,2.4l32.6,4.9l1.2-4
						L297.4,205.6z M304.1,198.6c-2.2-0.4-3.2-1.8-2.9-3.8c0.1-1.7,1.6-3,3.3-2.9c0.2,0,0.4,0,0.6,0.1l39.5,6.3
						c1.7,0.1,3,1.5,2.9,3.3c0,0.2,0,0.4-0.1,0.6c-0.3,2-1.7,3.1-3.9,2.7L304.1,198.6z M343.3,207.7c3.5,0.6,5.7-1.3,6.4-5.1
						s-1-6.4-4.4-6.9l-39.7-6.3c-3.5-0.6-5.7,1.4-6.4,5.2s1,6.3,4.4,6.9L343.3,207.7z M306,180.6c-2.2,0-3.4-1.3-3.4-3.4
						c-0.1-1.7,1.2-3.2,2.9-3.3c0.2,0,0.4,0,0.6,0l40,0.8c1.7-0.2,3.2,1.1,3.4,2.8c0,0.2,0,0.4,0,0.6c0,2-1.2,3.3-3.5,3.2L306,180.6
						z M346,184.1c3.5,0.1,5.5-2.1,5.6-6s-1.8-6.2-5.3-6.3l-40.2-0.8c-3.5-0.1-5.5,2.1-5.6,6.1s1.8,6.1,5.3,6.2L346,184.1z
						 M313.5,155.8l-0.3-2.5l-8.9,1.1c-3.4,0.4-5.2,2.2-4.6,6.6s2.7,5.8,5.9,5.4l9.5-1.1c2.6-0.4,5.2-1.4,7.3-3l10.2-7
						c1.4-0.9,3-1.5,4.7-1.7l7.8-0.9c1.5-0.3,3,0.7,3.3,2.3c0,0.1,0,0.2,0,0.4c0.2,2-0.5,3.1-2.5,3.3l-8.7,1l0.3,2.5l9-1.1
						c3.3-0.4,4.4-2.5,4-6.3c-0.4-3.5-2.6-5.5-5.9-5.1l-7.3,0.9c-2.4,0.4-4.6,1.3-6.6,2.6l-10.4,7.2c-1.9,1.2-4,2-6.3,2.2l-8.6,1
						c-2.3,0.3-3.3-0.6-3.6-3c-0.3-2.6,1-3.4,2.7-3.6L313.5,155.8z M295,137.6l1.2,3.4l48.8-13.5l-0.8-2.3l-29.9,8.3
						c-5.6,1.6-11.2,3.5-16.8,5.1v-0.1c5.4-2.2,10.8-4.6,16.1-7l28.2-13l-1.3-3.7l-30,7.9c-5.6,1.5-11.1,3.6-16.8,4.9v-0.1
						c5.4-2.1,10.8-4.5,16.2-6.8l28.4-12.4l-0.9-2.4l-46.5,20.5l1.3,3.5l31-8.2c5.4-1.4,10.6-3.2,15.9-4.5v0.1c-5.1,2-10,4.4-15,6.7
						L295,137.6z M291.3,115.3c-2,1.1-3.6,0.6-4.6-1.2c-1-1.4-0.6-3.4,0.9-4.3c0.2-0.1,0.3-0.2,0.5-0.3l35-19.3
						c1.4-1,3.3-0.6,4.3,0.8c0.1,0.2,0.2,0.3,0.3,0.5c1,1.8,0.5,3.5-1.4,4.5L291.3,115.3z M327.8,98.4c3.1-1.7,3.7-4.5,1.8-8
						s-4.7-4.4-7.8-2.8L286.6,107c-3.1,1.7-3.7,4.6-1.8,8s4.6,4.4,7.7,2.7L327.8,98.4z M271.9,95.5l1.7,2.2l19.9-15l4,5.3l-19.9,15
						l1.7,2.2l40.3-30.5l-1.7-2.2l-18.8,14.2l-4-5.3l18.7-14.2l-1.7-2.2L271.9,95.5z M257.6,81.2l2.3,2l2.4-2.7l-2.3-2L257.6,81.2z
						 M280.6,49.8l1.9,1.7l4.5-5.1c1.5-1.7,2.7-1.9,3.9-0.8s1.5,2.3,0,4.1l-5.6,6.4c-3.7,4-10,5.3-13.5,9.2l-6.5,7.4l1.9,1.7
						l5.4-6.1c1.6-1.8,3.5-3.2,5.6-4.3l3.4-2c2.3-1.3,4.4-2.9,6.1-4.9l4.4-5c3.1-3.5,2.8-5.5-0.1-8c-2.6-2.3-5-1.5-6.9,0.7
						L280.6,49.8z M245.9,72.2l3,1.9l30.2-40.7l-2.1-1.3L258.6,57c-3.5,4.7-6.7,9.6-10.1,14.3l-0.1-0.1c2.9-5,5.7-10.3,8.4-15.4
						L271,28.3l-3.3-2.1l-18.8,24.7c-3.5,4.7-6.6,9.7-10.2,14.2l-0.1-0.1c3-5,5.8-10.2,8.6-15.3L262,22.5l-2.1-1.4l-24,44.6l3.1,2
						l19.4-25.5c3.4-4.4,6.4-9,9.8-13.4l0.1,0.1c-2.8,4.7-5.2,9.6-7.7,14.5L245.9,72.2z M229.2,56.9c-0.9,2.1-2.5,2.7-4.4,1.9
						c-1.6-0.5-2.5-2.3-2-3.9c0.1-0.2,0.1-0.4,0.2-0.6l15.4-37c0.5-1.6,2.2-2.6,3.9-2.1c0.2,0.1,0.4,0.1,0.6,0.2
						c1.9,0.8,2.6,2.4,1.7,4.4L229.2,56.9z M247.2,20.9c1.3-3.2,0.1-5.9-3.5-7.4s-6.4-0.6-7.8,2.7l-15.4,37.2
						c-1.3,3.2,0,5.9,3.6,7.4s6.4,0.5,7.7-2.7L247.2,20.9z M200.5,53l2.7,0.7l8.6-32.6c0.4-1.6,1.7-7.9,3.3-14.3h0.1
						c-0.9,6.6-2,13.5-2.2,16.2l-3.5,32.4l4.1,1.1l12.9-48.9l-2.7-0.7L215.5,38c-0.7,2.6-2,9-3.5,15.9h-0.1
						c0.7-6.1,1.3-11.9,1.8-15.9l3.7-32.8l-4.1-1.1L200.5,53z M179.2,36.8l-2.5-0.1l-0.4,9c-0.2,3.4,1.4,5.5,5.7,5.7
						s6.1-1.7,6.2-4.9l0.4-9.5c0-2.7-0.6-5.3-1.8-7.7l-5.2-11.2c-0.7-1.5-1-3.2-0.9-4.9l0.4-7.8c0-1.6,1.2-2.8,2.8-2.9
						c0.1,0,0.3,0,0.4,0c2,0.1,3,1,2.9,3l-0.4,8.7l2.5,0.1l0.4-9c0.1-3.3-1.8-4.8-5.5-4.9c-3.6-0.2-5.9,1.7-6,5l-0.3,7.3
						c0,2.4,0.5,4.8,1.5,6.9l5.4,11.4c0.9,2.1,1.3,4.3,1.2,6.6l-0.4,8.7c-0.1,2.3-1.2,3.2-3.6,3.1c-2.6-0.1-3.1-1.5-3.1-3.2
						L179.2,36.8z M168.8,51l2.8-0.1l-2.2-50.5l-2.8,0.1L168.8,51z M141.9,55.3l2.7-0.6l-7.4-32.9c-0.4-1.6-2.1-7.8-3.7-14.2h0.1
						c2.2,6.3,4.5,12.8,5.5,15.4L151,53.3l4.1-0.9L144,3.1l-2.7,0.6l7,31.4c0.6,2.7,2.4,8.9,4.2,15.7h-0.1
						c-2.2-5.7-4.3-11.2-5.7-14.9L135,5.1L130.9,6L141.9,55.3z M132.4,53c0.8,2.1,0.1,3.7-1.8,4.4c-1.5,0.8-3.4,0.1-4.2-1.4
						c-0.1-0.2-0.2-0.4-0.2-0.6L111.8,18c-0.8-1.5-0.2-3.4,1.3-4.2c0.2-0.1,0.4-0.2,0.6-0.2c1.9-0.7,3.5-0.1,4.3,2L132.4,53z
						 M120.6,14.6c-1.3-3.3-4-4.3-7.7-2.9s-5,4.1-3.8,7.3l14.5,37.5c1.3,3.3,4.1,4.3,7.7,2.9c3.7-1.4,5-4,3.7-7.3L120.6,14.6z
						 M115.8,60.2c1.1,2,0.6,3.6-1.2,4.6c-1.4,1-3.4,0.6-4.3-0.9c-0.1-0.2-0.2-0.3-0.3-0.5l-19.3-35c-1-1.4-0.6-3.3,0.8-4.3
						c0.2-0.1,0.4-0.2,0.5-0.3c1.8-1,3.5-0.5,4.5,1.4L115.8,60.2z M98.9,23.8c-1.7-3.1-4.5-3.7-8-1.8s-4.4,4.7-2.8,7.8L107.5,65
						c1.7,3.1,4.6,3.7,8,1.8s4.4-4.7,2.7-7.7L98.9,23.8z M90.6,66l-2,1.5l5.3,7.2c2,2.8,4.5,3.4,8,0.8s3.7-5.2,1.8-7.7L98,60.1
						c-1.7-2.1-3.8-3.8-6.2-4.9l-11.2-5.4c-1.5-0.8-2.8-1.9-3.8-3.2l-4.7-6.3c-1-1.2-0.9-3,0.3-4c0.1-0.1,0.2-0.2,0.3-0.3
						c1.6-1.2,2.9-1.1,4.1,0.5l5.2,7l2-1.5l-5.4-7.3c-2-2.7-4.4-2.6-7.4-0.4c-2.9,2.1-3.5,5-1.6,7.7l4.4,5.9
						c1.5,1.9,3.4,3.4,5.5,4.4L91.1,58c2,1,3.7,2.5,5.1,4.4l5.2,7c1.4,1.9,1.1,3.2-0.8,4.6c-2.1,1.5-3.4,0.8-4.4-0.6L90.6,66z
						 M84,91.1l2.3-2.7l-36-35.7l-1.6,1.9l22,21.9c4.1,4.1,8.6,8,12.7,12l-0.1,0.1c-4.5-3.6-9.3-7-14.1-10.5L44.1,59.9l-2.5,3
						l21.7,22.2c4.1,4.2,8.6,7.9,12.6,12.2l-0.1,0.1c-4.5-3.7-9.2-7.2-13.9-10.7L37.1,68.1L35.5,70l40.7,30.2l2.4-2.8L56.2,74.5
						c-3.9-4-8-7.6-11.8-11.6l0.1-0.1c4.2,3.4,8.8,6.5,13.3,9.7L84,91.1z M66.4,105.3c1.9,1.2,2.3,2.9,1.2,4.6
						c-0.8,1.5-2.6,2.2-4.2,1.4c-0.2-0.1-0.3-0.2-0.5-0.3l-34-21c-1.5-0.7-2.2-2.6-1.5-4.1c0.1-0.2,0.2-0.4,0.3-0.5
						c1.1-1.7,2.7-2.2,4.6-1L66.4,105.3z M33.8,81.9c-3-1.8-5.8-1-7.8,2.3s-1.6,6.3,1.4,8.1l34.2,21.1c3,1.8,5.8,1,7.9-2.4
						s1.6-6.2-1.4-8L33.8,81.9z M58.8,132l1.1-2.6L37,119.6l2.6-6.1l22.9,9.8l1.1-2.6l-46.4-20l-1.1,2.6l21.6,9.3l-2.6,6.1
						l-21.6-9.3l-1.1,2.6L58.8,132z"/>
				</g>
			</g>
		</g>
	</g>
</g>
</svg>
