<svg xmlns="http://www.w3.org/2000/svg" viewBox="0 0 252.89 205.5"><defs><style>.cls-1{fill:#fff;}</style></defs><title>Asset 2</title><g id="Layer_2" data-name="Layer 2"><g id="Layer_1-2" data-name="Layer 1"><g id="Layer_1-2-2" data-name="Layer 1-2"><path class="cls-1" d="M172.89,196.73h4.65V72.34h-4.65Zm32.05,0h5.48V72.34h-5.48Zm21.92,0h4.66V72.34h-4.66ZM5.48,72.34H8.77V200H5.48ZM14.25,5.48H24.93V200H14.25ZM0,0V205.5H31.78l6-5.48V5.48L31.78,0ZM51.51,200H48V72.34h3.56ZM72.61,72.34h3.56V200H72.61ZM58.91,5.48h6.3V200h-6.3ZM49.32,0l-6,5.48V72.34h0V200l6,5.48H74.8l6-5.48V5.48L74.8,0Zm69.87,200H115.9V72.34h3.29ZM110.69,0l-5.75,44.94L99.18,0H86.31V205.5H99.18V42.74l3,23.57h5.48l2.74-22.2V205.5h14.25V0Zm45.76,72.34h3.84L161.93,200h-3.29ZM137.82,5.48h17.53l.83,60.83H137.27ZM137.27,0l-4.93,5.48-2.19,200h5.48L137,72.34h14l2.19,130.42v2.74h14.25V200L165.22,58.91,164.4,5.48,159.46,0ZM188.5,72.34h7.67V200H188.5ZM177.54,0V5.48h3.56V200h-3.56v5.48h27.4V200h-3.29V5.48h3.29V0Zm69.87,0V200h-3.29V66.31L223.3,0h-7.4V205.5h7.4V23.56l15.34,48.78V205.5h14.25V0Z"/></g></g></g></svg>